<svg width="1200" height="1200" viewBox="0 0 1200 1200" fill="none" xmlns="http://www.w3.org/2000/svg">
  <defs>
    <linearGradient id="bg" x1="120" y1="80" x2="1080" y2="1120" gradientUnits="userSpaceOnUse">
      <stop stop-color="#0E1726"/>
      <stop offset="1" stop-color="#14273B"/>
    </linearGradient>
    <linearGradient id="accent" x1="260" y1="260" x2="940" y2="940" gradientUnits="userSpaceOnUse">
      <stop stop-color="#F59E0B"/>
      <stop offset="1" stop-color="#22D3EE"/>
    </linearGradient>
    <linearGradient id="stroke" x1="140" y1="140" x2="1060" y2="1060" gradientUnits="userSpaceOnUse">
      <stop stop-color="#FFFFFF" stop-opacity="0.28"/>
      <stop offset="1" stop-color="#FFFFFF" stop-opacity="0.08"/>
    </linearGradient>
    <filter id="soft" x="0" y="0" width="1200" height="1200" filterUnits="userSpaceOnUse" color-interpolation-filters="sRGB">
      <feGaussianBlur stdDeviation="8"/>
    </filter>
  </defs>

  <rect x="120" y="120" width="960" height="960" rx="220" fill="url(#bg)"/>
  <circle cx="600" cy="510" r="260" fill="#0A1320"/>
  <circle cx="600" cy="510" r="259" stroke="#FFFFFF" stroke-opacity="0.10"/>
  <circle cx="600" cy="510" r="202" fill="#0F1E30"/>

  <g filter="url(#soft)">
    <path d="M408 512L534 384L620 470L790 300L862 372L620 614L534 528L472 590L408 512Z" fill="url(#accent)"/>
  </g>
  <path d="M408 512L534 384L620 470L790 300L862 372L620 614L534 528L472 590L408 512Z" fill="url(#accent)"/>

  <text x="600" y="790" fill="#F3F7FB" font-size="170" font-weight="800" text-anchor="middle" font-family="Montserrat, 'Noto Sans TC', 'Segoe UI', sans-serif" letter-spacing="8">TLETC</text>
  <text x="600" y="860" fill="#A9B8CA" font-size="34" font-weight="500" text-anchor="middle" font-family="Montserrat, 'Noto Sans TC', 'Segoe UI', sans-serif" letter-spacing="1.5">Taiwan Liquor Excise Tax Calculator</text>
</svg>
